:version 1.10
:name ASF
:units
  mass 1
  length 1
  angle deg
:documentation
  ASF file generated by Kaydara
:root
  axis xyz
  order  tx ty tz rx ry rz
  position 0 0 0
  orientation 0 0 0
:bonedata
  begin
    id 1
    name SpineDummy
    direction 0.999998 -0.00179978 1.38929e-006
    length 3.60008
    axis 0 0 0 xyz
  end
  begin
    id 2
    name Spine
    direction 0.964365 0.262802 0.0305839
    length 8.13928
    axis 1.33928 -1.75354 15.2838 xyz
    dof rx ry rz
  end
  begin
    id 3
    name Spine1
    direction 0.811168 0.572065 0.12144
    length 7.14954
    axis 2.2224 -6.9761 35.2157 xyz
    dof rx ry rz
  end
  begin
    id 4
    name Neck
    direction 0 0 0
    length 0
    axis 2.2224 -6.9761 35.2157 xyz
    dof rx ry rz
  end
  begin
    id 5
    name HeadDummy
    direction 0.810939 0.572387 0.121455
    length 3.55534
    axis 2.2224 -6.9761 35.2157 xyz
  end
  begin
    id 6
    name Head
    direction 0.998226 -0.000232542 0.0595419
    length 7.35666
    axis -3.03688 -3.41352 -0.0133467 xyz
    dof rx ry rz
  end
  begin
    id 7
    name R_ClavicleDummy
    direction 0.531669 -0.194489 -0.824319
    length 2.49392
    axis 2.2224 -6.9761 35.2157 xyz
  end
  begin
    id 8
    name R_Clavicle
    direction -0.155119 0.0480802 -0.986725
    length 4.485
    axis -54.2764 80.6538 162.779 xyz
    dof rx ry rz
  end
  begin
    id 9
    name R_UpperArm
    direction -0.955567 0.200068 -0.216484
    length 10.1122
    axis -72.9943 12.5026 168.175 xyz
    dof rx ry rz
  end
  begin
    id 10
    name R_Forearm
    direction -0.61433 0.385743 0.688332
    length 9.39148
    axis -117.015 -43.4982 147.875 xyz
    dof rx ry rz
  end
  begin
    id 11
    name R_Hand
    direction -0.699429 0.0170333 0.714499
    length 3.66324
    axis -45.0303 -36.7097 175.478 xyz
    dof rx ry rz
  end
  begin
    id 12
    name L_ClavicleDummy
    direction 0.40287 -0.36502 0.839319
    length 2.49392
    axis 2.2224 -6.9761 35.2157 xyz
  end
  begin
    id 13
    name L_Clavicle
    direction -0.231271 -0.0726419 0.970174
    length 4.485
    axis 18.4357 -75.9711 -162.563 xyz
    dof rx ry rz
  end
  begin
    id 14
    name L_UpperArm
    direction -0.917494 0.144359 0.370629
    length 10.1122
    axis 56.0417 -21.7544 171.058 xyz
    dof rx ry rz
  end
  begin
    id 15
    name L_Forearm
    direction -0.496786 0.615074 -0.612281
    length 9.39148
    axis 89.8094 37.7546 128.927 xyz
    dof rx ry rz
  end
  begin
    id 16
    name L_Hand
    direction -0.409932 0.64962 -0.640274
    length 3.66324
    axis -0.424369 32.133 128.52 xyz
    dof rx ry rz
  end
  begin
    id 17
    name L_ThighDummy
    direction -1.84081e-006 1.87549e-006 1
    length 3.13049
    axis 0 0 0 xyz
  end
  begin
    id 18
    name L_Thigh
    direction -0.947739 0.307978 0.083308
    length 17.9961
    axis 173.219 -4.77873 161.998 xyz
    dof rx ry rz
  end
  begin
    id 19
    name L_Calf
    direction -0.728814 -0.684427 0.0197583
    length 13.3367
    axis 167.331 -1.13214 -136.799 xyz
    dof rx ry rz
  end
  begin
    id 20
    name L_Foot
    direction -0.9028 0.418719 0.0981191
    length 5.8674
    axis 163.436 11.5135 -155.37 xyz
    dof rx ry rz
  end
  begin
    id 21
    name L_Toe0
    direction -0.35341 0.886259 0.299411
    length 4.75286
    axis 169.316 -17.4222 111.74 xyz
    dof rx ry rz
  end
  begin
    id 22
    name R_ThighDummy
    direction 9.32778e-007 -8.82053e-007 -1
    length 3.13049
    axis 0 0 0 xyz
  end
  begin
    id 23
    name R_Thigh
    direction -0.925064 0.37528 -0.0585023
    length 17.9961
    axis -178.698 3.35385 157.919 xyz
    dof rx ry rz
  end
  begin
    id 24
    name R_Calf
    direction -0.68969 -0.718776 -0.0876886
    length 13.3367
    axis -160.504 5.03065 -133.817 xyz
    dof rx ry rz
  end
  begin
    id 25
    name R_Foot
    direction -0.857405 0.418858 -0.299022
    length 5.8674
    axis -161.328 4.38911 -154.413 xyz
    dof rx ry rz
  end
  begin
    id 26
    name R_Toe0
    direction -0.100745 0.952789 -0.286433
    length 4.75286
    axis 171.683 16.6445 96.0359 xyz
    dof rx ry rz
  end
:hierarchy
  begin
    root SpineDummy L_ThighDummy R_ThighDummy
    SpineDummy Spine
    Spine Spine1
    Spine1 Neck
    Neck HeadDummy R_ClavicleDummy L_ClavicleDummy
    HeadDummy Head
    R_ClavicleDummy R_Clavicle
    R_Clavicle R_UpperArm
    R_UpperArm R_Forearm
    R_Forearm R_Hand
    L_ClavicleDummy L_Clavicle
    L_Clavicle L_UpperArm
    L_UpperArm L_Forearm
    L_Forearm L_Hand
    L_ThighDummy L_Thigh
    L_Thigh L_Calf
    L_Calf L_Foot
    L_Foot L_Toe0
    R_ThighDummy R_Thigh
    R_Thigh R_Calf
    R_Calf R_Foot
    R_Foot R_Toe0
  end

:SAMPLES-PER-SECOND 30
:FULLY-SPECIFIED
:DEGREES
361
root  4.25969 31.3756 -17.2354 103.807 8.36902 97.8996
Spine  -3.15009 -9.12527 -6.68639
Spine1  -2.512 6.52428 7.63055
Neck  3.97569e-016 0 -2.38542e-015
Head  9.05041 -3.19016 13.9333
R_Clavicle  0.348285 -19.6464 -0.949172
R_UpperArm  11.2193 -12.7888 36.4311
R_Forearm  25.3972 -11.6789 9.8614
R_Hand  -2.60864 12.3892 -28.9858
L_Clavicle  -0.295313 10.8894 -0.208139
L_UpperArm  6.47512 -2.67176 -16.267
L_Forearm  8.51653 13.0618 15.5261
L_Hand  -0.0169696 2.33682 -0.135223
L_Thigh  0.240877 -10.4024 -4.18668
L_Calf  3.72958 -1.80145 14.0268
L_Foot  6.04564 13.2697 8.67803
L_Toe0  0.50511 0.0367122 -6.13612
R_Thigh  10.7276 -9.41204 -6.38574
R_Calf  -3.67621 -6.44742 -20.539
R_Foot  1.85645 4.39673 -7.97915
R_Toe0  -1.78853 -0.272788 -17.3235
362
root  4.52342 32.1369 -15.758 100.952 8.51452 97.0761
Spine  -4.8685 -9.6046 -8.22922
Spine1  -4.33778 8.46501 5.77577
Neck  3.97569e-016 0 -2.38542e-015
Head  15.2776 -4.44696 18.8608
R_Clavicle  0.317671 -18.945 -1.29509
R_UpperArm  10.541 -14.5963 37.8373
R_Forearm  23.0332 -9.2888 7.78211
R_Hand  -2.34687 12.2044 -27.4923
L_Clavicle  -0.279726 9.57469 0.214737
L_UpperArm  8.41115 -4.07371 -16.1926
L_Forearm  6.60177 15.7873 19.0466
L_Hand  -0.0321432 2.22523 -0.366948
L_Thigh  -1.01139 -7.90659 -9.1387
L_Calf  7.19005 -2.44981 18.9295
L_Foot  4.33495 8.81178 7.67393
L_Toe0  0.494985 0.0355562 -6.14511
R_Thigh  7.87443 -7.93804 -2.82144
R_Calf  -6.00569 -4.31403 -13.5826
R_Foot  1.58112 3.0745 -8.1642
R_Toe0  -1.78853 -0.272788 -17.3235
363
root  4.79008 32.6554 -14.2991 98.4875 8.76858 96.6317
Spine  -6.38945 -10.3353 -9.80459
Spine1  -5.78792 10.5617 5.21877
Neck  3.97569e-016 0 -2.38542e-015
Head  19.8627 -4.9066 22.2032
R_Clavicle  0.276167 -17.613 -1.27442
R_UpperArm  11.0028 -15.4209 37.6605
R_Forearm  20.2444 -6.91413 5.75424
R_Hand  -1.99712 11.5991 -25.5291
L_Clavicle  -0.270894 8.25956 0.589348
L_UpperArm  10.6153 -5.90671 -16.478
L_Forearm  3.31302 18.1364 22.2204
L_Hand  -0.0735635 2.37024 -0.948226
L_Thigh  0.54619 -6.48493 -14.3714
L_Calf  9.49172 -3.01422 23.2461
L_Foot  2.83292 3.97055 7.69536
L_Toe0  0.569439 0.0340621 -6.07914
R_Thigh  5.73405 -7.41596 -0.883389
R_Calf  -7.30423 -1.22396 -3.87705
R_Foot  1.47513 3.19572 -6.54955
R_Toe0  -1.78853 -0.272788 -17.3235
364
root  5.05503 32.7933 -12.8937 95.6157 9.42285 96.6312
Spine  -7.31994 -11.743 -10.4767
Spine1  -6.39334 13.1262 4.90054
Neck  3.97569e-016 0 -2.38542e-015
Head  23.3437 -5.27358 24.0682
R_Clavicle  0.259945 -16.4812 -0.916363
R_UpperArm  11.5797 -14.7377 36.6177
R_Forearm  17.4388 -5.16427 4.27832
R_Hand  -1.55806 11.1959 -22.8282
L_Clavicle  -0.248523 7.45491 0.539717
L_UpperArm  12.1185 -7.80182 -16.5742
L_Forearm  0.573271 19.9806 24.8248
L_Hand  -0.0869424 2.6561 -1.08609
L_Thigh  3.84771 -6.00115 -19.7202
L_Calf  9.30246 -3.34104 25.9824
L_Foot  3.03207 3.50771 9.09211
L_Toe0  1.18941 0.0196477 -5.52924
R_Thigh  4.06713 -7.59808 -0.0616889
R_Calf  -6.91936 2.5448 7.82192
R_Foot  1.31915 2.67725 -6.08621
R_Toe0  -1.78853 -0.272788 -17.3235
365
root  5.30666 32.6583 -11.5671 91.9173 10.4845 96.2398
Spine  -7.63332 -12.0387 -10.4574
Spine1  -6.32792 14.8062 4.6632
Neck  3.97569e-016 0 -2.38542e-015
Head  25.9885 -5.58189 24.8269
R_Clavicle  0.265961 -16.1847 -0.661223
R_UpperArm  12.001 -12.8873 35.2213
R_Forearm  16.0551 -4.2227 3.48919
R_Hand  -1.20615 11.0018 -20.5846
L_Clavicle  -0.209837 7.14297 0.142616
L_UpperArm  12.7301 -9.81114 -16.1946
L_Forearm  -1.87371 21.5242 27.0957
L_Hand  -0.0643245 3.00015 -0.726849
L_Thigh  5.95088 -5.39534 -24.929
L_Calf  8.46057 -3.60498 27.8404
L_Foot  4.81877 7.30954 11.0544
L_Toe0  2.00491 -0.00980076 -4.80575
R_Thigh  2.35491 -7.15727 -0.200098
R_Calf  -5.80489 6.76043 21.3924
R_Foot  0.938601 0.511444 -7.32119
R_Toe0  -1.78853 -0.272788 -17.3235
366
root  5.50682 32.3596 -10.293 88.0067 11.3174 95.5604
Spine  -7.58338 -11.6151 -10.9173
Spine1  -5.96763 15.7028 5.17682
Neck  3.97569e-016 0 -2.38542e-015
Head  27.9616 -5.57364 24.8721
R_Clavicle  0.272215 -16.2988 -0.599811
R_UpperArm  12.3349 -10.386 33.2107
R_Forearm  17.2706 -4.06504 3.35756
R_Hand  -1.0649 10.5873 -19.6446
L_Clavicle  -0.185872 7.4046 -0.262173
L_UpperArm  13.0838 -12.1876 -15.3894
L_Forearm  -4.46974 23.0014 29.3598
L_Hand  -0.0381265 3.3284 -0.357466
L_Thigh  5.43344 -4.76782 -30.2804
L_Calf  8.11852 -3.95391 31.2868
L_Foot  7.02686 10.947 14.1367
L_Toe0  1.37853 0.0133163 -5.36274
R_Thigh  0.745221 -6.19755 -0.48636
R_Calf  -5.7862 10.4514 35.3328
R_Foot  1.13315 0.795052 -8.56954
R_Toe0  -1.78853 -0.272788 -17.3235
367
root  5.6193 31.8988 -9.03699 84.6628 11.6019 95.305
Spine  -7.42495 -13.0145 -11.6563
Spine1  -5.3029 18.5018 6.3918
Neck  3.97569e-016 0 -2.38542e-015
Head  30.2472 -6.08766 24.0167
R_Clavicle  0.286366 -15.9797 -0.213245
R_UpperArm  12.1619 -6.92473 29.7701
R_Forearm  19.494 -5.2987 4.39225
R_Hand  -1.07422 9.67331 -19.6326
L_Clavicle  -0.21805 9.0495 -0.572244
L_UpperArm  11.7469 -14.412 -13.5985
L_Forearm  -5.41187 24.2445 31.3448
L_Hand  -0.0577433 3.10459 -0.625292
L_Thigh  3.87027 -5.07389 -34.1045
L_Calf  8.19306 -4.06384 33.0281
L_Foot  8.65933 11.9833 17.9074
L_Toe0  0.412818 0.0366247 -6.21788
R_Thigh  1.18506 -5.1141 1.28366
R_Calf  -8.181 11.7794 43.2614
R_Foot  1.49037 2.03677 -9.70441
R_Toe0  -1.78853 -0.272788 -17.3235
368
root  5.62982 31.3768 -7.86747 81.8604 11.6775 94.8675
Spine  -7.27733 -15.6762 -10.9466
Spine1  -4.2177 23.8925 7.68653
Neck  3.97569e-016 0 -2.38542e-015
Head  33.7912 -7.97326 21.5656
R_Clavicle  0.320456 -15.1982 0.571158
R_UpperArm  11.3164 -2.48764 24.7843
R_Forearm  19.8866 -8.64228 7.2275
R_Hand  -1.20879 8.48302 -20.5262
L_Clavicle  -0.306395 11.9469 -0.790856
L_UpperArm  5.56288 -15.0519 -10.3996
L_Forearm  -3.39792 24.9377 32.4868
L_Hand  -0.127334 1.83604 -1.83329
L_Thigh  3.74171 -5.86992 -35.9218
L_Calf  6.309 -4.00081 31.0508
L_Foot  9.52503 11.0774 21.5987
L_Toe0  0.595354 0.0453245 -6.29979
R_Thigh  2.03074 -3.30483 3.8324
R_Calf  -10.9799 11.8336 43.9351
R_Foot  1.88132 2.05109 -13.5808
R_Toe0  -1.78853 -0.272788 -17.3235
369
root  5.5061 30.9032 -6.77262 79.4764 11.5623 93.0721
Spine  -7.2404 -15.3983 -8.27901
Spine1  -3.35121 27.9963 8.28306
Neck  3.97569e-016 0 -2.38542e-015
Head  37.7251 -10.2501 17.6515
R_Clavicle  0.337085 -14.5081 0.942045
R_UpperArm  11.6429 1.26887 19.9696
R_Forearm  18.6884 -13.4189 11.4061
R_Hand  -1.4966 7.51339 -22.8043
L_Clavicle  -0.377169 14.0889 -1.11017
L_UpperArm  -4.93197 -13.0276 -6.51156
L_Forearm  -1.47645 24.9969 32.5848
L_Hand  -0.19001 0.359074 -3.63191
L_Thigh  3.78779 -5.71747 -36.1092
L_Calf  2.46166 -3.49976 25.859
L_Foot  9.35037 9.13838 23.7037
L_Toe0  1.29785 -0.035663 -3.79133
R_Thigh  -0.503236 0.860902 4.92677
R_Calf  -10.2495 10.7282 41.1708
R_Foot  1.90077 -2.15556 -19.4166
R_Toe0  -1.78853 -0.272788 -17.3235
370
root  5.23971 30.4423 -5.59297 77.8476 10.8016 90.1108
Spine  -7.01718 -10.3561 -5.30618
Spine1  -3.44967 27.6542 7.5971
Neck  3.97569e-016 0 -2.38542e-015
Head  39.939 -11.1062 13.682
R_Clavicle  0.299399 -13.9685 0.52203
R_UpperArm  16.8435 2.34568 17.7171
R_Forearm  18.8582 -17.0614 14.7457
R_Hand  -1.79953 6.92464 -25.4055
L_Clavicle  -0.370914 14.1849 -1.78759
L_UpperArm  -14.6355 -9.23765 -2.80128
L_Forearm  -3.13931 24.4988 31.7587
L_Hand  -0.267363 0.377742 -5.10177
L_Thigh  2.43609 -4.47101 -30.2748
L_Calf  0.482051 -1.32151 9.19081
L_Foot  6.85375 6.88756 18.3713
L_Toe0  2.27917 -1.03545 10.7659
R_Thigh  -6.87712 6.20874 5.68086
R_Calf  -6.30071 9.91186 35.6368
R_Foot  2.02973 -5.03255 -22.5365
R_Toe0  -1.78853 -0.272788 -17.3235
